<?xml version="1.0" standalone="no"?>
<svg xmlns="http://www.w3.org/2000/svg" xmlns:xlink="http://www.w3.org/1999/xlink" height="1200px" width="1920px">
  <defs>
    <pattern id="doodad" width="200" height="200" viewBox="0 0 40 40" patternUnits="userSpaceOnUse" patternTransform="rotate(135)">
      <rect width="100%" height="100%" fill="rgba(222, 200, 183, 1)"/>
      <path d="M-20 31l20-20l20 20l20-20l20 20l20-20l20 20v-2l-20-20l-20 20l-20-20l-20 20l-20-20l-20 20zM-20-9l20-20l20 20l20-20l20 20l20-20l20 20v-2l-20-20l-20 20l-20-20l-20 20l-20-20l-20 20zM-20 71l20-20l20 20l20-20l20 20l20-20l20 20v-2l-20-20l-20 20l-20-20l-20 20l-20-20l-20 20z " fill="rgba(140, 101, 166, 1)"/>
      <path d="M0 30.5l20-20l20 20l20-20l20 20l20-20l20 20v-1l-20-20l-20 20l-20-20l-20 20l-20-20l-20 20zM0-9.5l20-20l20 20l20-20l20 20l20-20l20 20v-1l-20-20l-20 20l-20-20l-20 20l-20-20l-20 20zM0 70.5l20-20l20 20l20-20l20 20l20-20l20 20v- 1l-20-20l-20 20l-20-20l-20 20l-20-20l-20 20z " fill="rgba(125, 132, 98, 1)"/>
      <path d="M-20 31l20-20v-2l-20 20zM20 31l20-20v-2l-20 20z" fill="rgba(140, 101, 166, 1)"/>
    </pattern>
  </defs>
  <rect fill="url(#doodad)" height="200%" width="200%"/>
</svg>
